<?xml version="1.0" encoding="UTF-8"?>
<svg xmlns="http://www.w3.org/2000/svg" xmlns:xlink="http://www.w3.org/1999/xlink" width="20pt" height="20pt" viewBox="0 0 20 20" version="1.1">
<g id="surface1">
<path style=" stroke:none;fill-rule:nonzero;fill:rgb(0%,0%,0%);fill-opacity:1;" d="M 20 5.625 L 20 16.875 C 20 17.910156 19.160156 18.75 18.125 18.75 L 1.875 18.75 C 0.839844 18.75 0 17.910156 0 16.875 L 0 5.625 C 0 4.589844 0.839844 3.75 1.875 3.75 L 5.3125 3.75 L 5.792969 2.464844 C 6.066406 1.734375 6.765625 1.25 7.546875 1.25 L 12.449219 1.25 C 13.230469 1.25 13.929688 1.734375 14.203125 2.464844 L 14.6875 3.75 L 18.125 3.75 C 19.160156 3.75 20 4.589844 20 5.625 Z M 14.6875 11.25 C 14.6875 8.664062 12.585938 6.5625 10 6.5625 C 7.414062 6.5625 5.3125 8.664062 5.3125 11.25 C 5.3125 13.835938 7.414062 15.9375 10 15.9375 C 12.585938 15.9375 14.6875 13.835938 14.6875 11.25 Z M 13.4375 11.25 C 13.4375 13.144531 11.894531 14.6875 10 14.6875 C 8.105469 14.6875 6.5625 13.144531 6.5625 11.25 C 6.5625 9.355469 8.105469 7.8125 10 7.8125 C 11.894531 7.8125 13.4375 9.355469 13.4375 11.25 Z M 13.4375 11.25 "/>
</g>
</svg>
