<?xml version="1.0" encoding="UTF-8"?>
<svg xmlns="http://www.w3.org/2000/svg" xmlns:xlink="http://www.w3.org/1999/xlink" width="19pt" height="17pt" viewBox="0 0 19 17" version="1.1">
<g id="surface1">
<path style=" stroke:none;fill-rule:nonzero;fill:rgb(0%,0%,0%);fill-opacity:1;" d="M 5.152344 0.0195312 C 5.125 0.03125 5.082031 0.0546875 5.058594 0.0742188 C 4.96875 0.144531 0.0625 5.351562 0.0351562 5.402344 C 0.00390625 5.472656 0 5.628906 0.0351562 5.703125 C 0.0429688 5.734375 0.679688 6.542969 1.433594 7.503906 C 2.195312 8.464844 3.273438 9.828125 3.828125 10.53125 C 4.382812 11.234375 4.875 11.855469 4.925781 11.917969 C 5.035156 12.054688 5.136719 12.109375 5.25 12.09375 C 5.351562 12.085938 5.4375 12.027344 5.496094 11.941406 L 5.539062 11.871094 L 5.542969 10.03125 L 5.546875 8.1875 L 5.660156 8.160156 C 6.152344 8.050781 6.886719 7.976562 7.480469 7.976562 C 9.972656 7.980469 12.3125 8.917969 14.289062 10.703125 C 15.886719 12.144531 17.273438 14.164062 18.378906 16.65625 C 18.554688 17.050781 18.605469 17.113281 18.761719 17.132812 C 18.863281 17.148438 18.949219 17.117188 19.027344 17.03125 C 19.140625 16.914062 19.144531 16.878906 19.097656 16.484375 C 18.714844 13.351562 17.855469 10.679688 16.570312 8.65625 C 15.71875 7.308594 14.683594 6.230469 13.46875 5.414062 C 12.085938 4.492188 10.460938 3.921875 8.699219 3.734375 C 8.253906 3.691406 7.976562 3.675781 7.441406 3.675781 C 6.78125 3.679688 6.246094 3.714844 5.714844 3.796875 L 5.589844 3.816406 L 5.585938 2.03125 C 5.582031 0.402344 5.582031 0.242188 5.554688 0.199219 C 5.523438 0.136719 5.460938 0.0664062 5.40625 0.0390625 C 5.34375 0.00390625 5.21875 -0.00390625 5.152344 0.0195312 Z M 5.152344 0.0195312 "/>
</g>
</svg>
