<?xml version="1.0" encoding="UTF-8"?>
<svg xmlns="http://www.w3.org/2000/svg" xmlns:xlink="http://www.w3.org/1999/xlink" width="30pt" height="24pt" viewBox="0 0 30 24" version="1.1">
<g id="surface1">
<path style=" stroke:none;fill-rule:nonzero;fill:rgb(0%,0%,0%);fill-opacity:1;" d="M 10.5 12 C 13.8125 12 16.5 9.3125 16.5 6 C 16.5 2.6875 13.8125 0 10.5 0 C 7.1875 0 4.5 2.6875 4.5 6 C 4.5 9.3125 7.1875 12 10.5 12 Z M 14.699219 13.5 L 13.917969 13.5 C 12.875 13.976562 11.71875 14.25 10.5 14.25 C 9.28125 14.25 8.128906 13.976562 7.082031 13.5 L 6.300781 13.5 C 2.820312 13.5 0 16.320312 0 19.800781 L 0 21.75 C 0 22.992188 1.007812 24 2.25 24 L 15.136719 24 C 15.023438 23.679688 14.976562 23.34375 15.015625 23 L 15.332031 20.148438 L 15.390625 19.625 L 19.382812 15.632812 C 18.234375 14.335938 16.570312 13.5 14.699219 13.5 Z M 16.824219 20.3125 L 16.503906 23.171875 C 16.453125 23.648438 16.855469 24.050781 17.328125 23.996094 L 20.183594 23.675781 L 26.648438 17.210938 L 23.289062 13.851562 Z M 29.671875 12.605469 L 27.894531 10.828125 C 27.460938 10.390625 26.746094 10.390625 26.3125 10.828125 L 24.347656 12.792969 L 27.710938 16.152344 L 29.671875 14.195312 C 30.109375 13.753906 30.109375 13.046875 29.671875 12.605469 Z M 29.671875 12.605469 "/>
</g>
</svg>
